<svg xmlns="http://www.w3.org/2000/svg" viewBox="0 0 200 100"><defs><style>.cls-1{fill:none;}.cls-2{fill:#fff;}</style></defs><title>Asset 2</title><g id="Layer_2" data-name="Layer 2"><g id="Layer_1-2" data-name="Layer 1"><rect class="cls-1" width="200" height="100"/><g id="Layer_2-2" data-name="Layer 2"><g id="svg2"><g id="g10"><g id="g12"><path id="path16" class="cls-2" d="M56.15,60.82a1.81,1.81,0,0,1-.56,1.33,1.77,1.77,0,0,1-1.33.56,1.9,1.9,0,0,1-1.88-1.88,1.76,1.76,0,0,1,.56-1.33,1.81,1.81,0,0,1,1.33-.56,1.9,1.9,0,0,1,1.88,1.88h0"/><path id="path18" class="cls-2" d="M70.69,60.82a1.82,1.82,0,0,1-.55,1.33,1.77,1.77,0,0,1-1.33.56,1.9,1.9,0,0,1-1.88-1.88,1.76,1.76,0,0,1,.56-1.33,1.81,1.81,0,0,1,1.32-.56,1.89,1.89,0,0,1,1.88,1.88h0"/><path id="path20" class="cls-2" d="M103.25,59.12a12.55,12.55,0,0,1-21.43-8.87,12.55,12.55,0,0,1,21.43-8.88l-3.4,3.4a7.75,7.75,0,0,0-11,0,7.41,7.41,0,0,0-2.26,5.45,7.74,7.74,0,0,0,13.21,5.48l3.4,3.39h0"/><path id="path22" class="cls-2" d="M125.19,62.42H109V38.07h4.82V57.6h11.42v4.82"/><path id="path24" class="cls-2" d="M151.45,52.15a10.23,10.23,0,0,1-3.11,7.52,10.38,10.38,0,0,1-7.54,3.13,10.65,10.65,0,0,1-10.66-10.64V38.07H135V52.15A5.81,5.81,0,0,0,140.75,58h.05a5.86,5.86,0,0,0,5.83-5.83V38.07h4.82V52.15"/><path id="path26" class="cls-2" d="M170.61,54.83a2.69,2.69,0,0,0-.79-1.93,2.47,2.47,0,0,0-1.87-.84h-6v5.4h6a2.66,2.66,0,0,0,2.66-2.65Zm-.89-9.77a2.05,2.05,0,0,0-.64-1.52,2,2,0,0,0-1.52-.67H162v4.36h5.58a2,2,0,0,0,1.52-.63,2.14,2.14,0,0,0,.64-1.55Zm5.7,9.77a7.33,7.33,0,0,1-2.21,5.35,7.08,7.08,0,0,1-5.27,2.23H157.16V38.07h10.4a6.63,6.63,0,0,1,4.92,2,6.73,6.73,0,0,1,2.06,4.95,6.87,6.87,0,0,1-1.42,4.26,7.33,7.33,0,0,1,2.3,5.51h0"/><path id="path28" class="cls-2" d="M72.73,37.69,61.56,63.13,50.38,37.69h5.34L61.56,51l5.86-13.31h5.32"/><path id="path30" class="cls-2" d="M34.52,55.05l2.77-5.92,2.77,5.92Zm2.77-17.88L25.42,62.56h5.38l1.43-3.33H42.35l1.43,3.33h5.38L37.29,37.17"/></g></g></g></g></g></g></svg>