<svg xmlns="http://www.w3.org/2000/svg" viewBox="0 0 200 100"><defs><style>.cls-1{fill:#fff;}.cls-2{fill:none;}</style></defs><title>Asset 1</title><g id="Layer_2" data-name="Layer 2"><g id="Layer_1-2" data-name="Layer 1"><path class="cls-1" d="M171,47.3h0a9.45,9.45,0,0,1-17.1,5.51l-3.39-.46,5.22,7.56-7.49-5.31,1.47,8.55-4.84-7-1.6,8.54-1.6-8.54-4.84,7,1.47-8.55-7.49,5.31L136,52.36l-3.22.44A9.45,9.45,0,0,1,116,49.72a9.45,9.45,0,0,1-18.24.14,9.45,9.45,0,0,1-18.21-.16,9.45,9.45,0,0,1-17.28,2.36l2.76-.8h1.52V46.4l2,2.9H70l2.33-3.06v5H75V42.82H72.83L70,46.51l-2.57-3.69H65l-2.71-.4a9.45,9.45,0,0,1,17.23,2.43,9.45,9.45,0,0,1,18.21-.16,9.45,9.45,0,0,1,18.21.16,9.45,9.45,0,0,1,16.85-3l3.18.43-5.2-7.59L138.29,40l-1.47-8.46,4.84,7,1.6-8.54,1.6,8.45,4.84-7L148.23,40l7.49-5.28-5.22,7.56,3.35-.46A9.45,9.45,0,0,1,171,47.3Zm-5.64-3v-1.5h-8.43v1.5h2.91v6.94h2.58V44.32Zm-17.93,2.92a4.55,4.55,0,1,0-4.67,4.43A4.56,4.56,0,0,0,147.43,47.24Zm-17.71-1.58c0-1.42-1.17-2.84-3.49-2.84h-4.74v8.42h2.59V48.5h2.07C128.47,48.5,129.72,47.08,129.72,45.66Zm-20.41-.85.79-.88a6.28,6.28,0,0,0-3.43-1.29c-1.49,0-3.87.56-3.87,2.56,0,2.81,4.61,2.6,4.61,4.18,0,1.28-2.56.71-4.15-.43l-.75.91a6.24,6.24,0,0,0,4,1.73c2.14,0,3.9-1.11,3.9-2.63,0-2.81-4.63-2.94-4.63-4.15S108,44,109.31,44.81ZM91.85,51.26v-1.5H87.74V47.37h2.65V45.88h-3V44.32h4.42v-1.5h-7v8.44Z"/><path class="cls-1" d="M144.83,47.12h0c0,1.6-.81,2.88-1.81,2.88s-1.83-1.29-1.83-2.88.82-2.89,1.83-2.89S144.83,45.52,144.83,47.12Z"/><path class="cls-1" d="M125.39,44.31a1.43,1.43,0,1,1,0,2.82h-1.31V44.31Z"/><path class="cls-1" d="M65,42.82v8.44l-2.76.8a9.35,9.35,0,0,1-.93-2.17,9.45,9.45,0,0,1-18.21-.19,9.45,9.45,0,1,1,0-4.85,9.45,9.45,0,0,1,18.21-.19,9.35,9.35,0,0,1,1-2.24Zm-8.22,8.43-4-8.43h-2L47,51.25h1.62l.61-1.34h3.9l.68,1.34Zm-18.88,0V47.37H35.19v2.37a2.43,2.43,0,0,1-.88.26A2.07,2.07,0,0,1,34,50a2.57,2.57,0,0,1-2.36-2.78,3.07,3.07,0,0,1,2.57-3.11,4.81,4.81,0,0,1,3,.51l.16-1.27A6.39,6.39,0,0,0,34,42.49c-2.67,0-5.36,1.54-5.36,4.67v.19a4.5,4.5,0,0,0,4.78,4.22C35.88,51.55,35.7,51,37.93,51.26Z"/><polygon class="cls-1" points="51.05 45.87 52.43 48.58 49.82 48.58 51.05 45.87"/><rect class="cls-2" width="200" height="100"/></g></g></svg>