<svg xmlns="http://www.w3.org/2000/svg" viewBox="0 0 200 100"><defs><style>.cls-1{fill:none;}.cls-2{fill:#fff;}</style></defs><title>Asset 12</title><g id="Layer_2" data-name="Layer 2"><g id="Layer_1-2" data-name="Layer 1"><rect class="cls-1" width="200" height="100"/></g><g id="Layer_2-2" data-name="Layer 2"><g id="Layer_2-2-2" data-name="Layer 2-2"><g id="Layer_2-3" data-name="Layer 2-3"><g id="svg2"><g id="g10"><g id="g12"><path id="path14" class="cls-2" d="M103.66,52.25V46.85h14.5a2.66,2.66,0,0,1,2.66,2.66v6.43a6,6,0,0,1-6,6h-9.3a12.41,12.41,0,1,1,0-24.83h14.38v5.7H105.55a6.71,6.71,0,1,0,0,13.42h9.61v-4H103.66"/><path id="path16" class="cls-2" d="M91.21,37.13H85.57V59.36A2.66,2.66,0,0,0,88.23,62h3V37.13"/><path id="path18" class="cls-2" d="M147.42,37.15h-3V56.3a.33.33,0,0,1,0,.16.39.39,0,0,1-.33.19.42.42,0,0,1-.35-.21l-9.48-16.6A6,6,0,0,0,129,36.91h-.1a6,6,0,0,0-6,6V59.36A2.66,2.66,0,0,0,125.6,62h3V42.87a.34.34,0,0,1,.06-.18.39.39,0,0,1,.34-.2.37.37,0,0,1,.33.19l9.51,16.74A5.86,5.86,0,0,0,144,62.27h.1a6,6,0,0,0,6-6h0V39.8a2.66,2.66,0,0,0-2.66-2.66"/><path id="path24" class="cls-2" d="M57.2,44.15A10,10,0,0,1,60,41.3a35.72,35.72,0,0,1,.66-4,13.28,13.28,0,0,0-7.52,7.52,35.63,35.63,0,0,1,4-.66"/><path id="path26" class="cls-2" d="M70.92,41.28h0a10,10,0,0,1,2.84,2.84,35.7,35.7,0,0,1,4,.66,13.28,13.28,0,0,0-7.54-7.54,36.44,36.44,0,0,1,.66,4"/><path id="path28" class="cls-2" d="M60,57.88A10,10,0,0,1,57.2,55h0a37.06,37.06,0,0,1-4-.66,13.28,13.28,0,0,0,7.48,7.52,35.74,35.74,0,0,1-.66-4"/><path id="path30" class="cls-2" d="M73.8,55h0A10,10,0,0,1,71,57.88h0a36.52,36.52,0,0,1-.66,4,13.28,13.28,0,0,0,7.51-7.5,36.77,36.77,0,0,1-4,.66"/><path id="path32" class="cls-2" d="M80.5,47.14a25.6,25.6,0,0,0-7-1.62,4,4,0,0,0-.66-.06L69.1,49.6l3.7,4.13a4.26,4.26,0,0,0,.8-.08A25.8,25.8,0,0,0,80.5,52ZM58.17,45.46a4.07,4.07,0,0,0-.66.06,25.36,25.36,0,0,0-7,1.62V52a25.86,25.86,0,0,0,6.91,1.63,4.25,4.25,0,0,0,.8.08l3.7-4.14Zm3.18,11.45a4.1,4.1,0,0,0,.06.66,25.27,25.27,0,0,0,1.62,7h4.88a25.86,25.86,0,0,0,1.63-6.91,4.26,4.26,0,0,0,.08-.8l-4.14-3.7ZM63,34.59h4.88a25.86,25.86,0,0,1,1.63,6.91,4.25,4.25,0,0,1,.08.8L65.48,46l-4.14-3.7a4.1,4.1,0,0,1,.06-.66,25.07,25.07,0,0,1,1.62-7"/></g></g></g></g></g></g></g></svg>