<svg xmlns="http://www.w3.org/2000/svg" viewBox="0 0 200 100"><defs><style>.cls-1{fill:none;}.cls-2{fill:#fff;}</style></defs><title>Asset 1</title><g id="Layer_2" data-name="Layer 2"><g id="Layer_1-2" data-name="Layer 1"><g id="Layer_2-2" data-name="Layer 2"><g id="Layer_1-2-2" data-name="Layer 1-2"><rect class="cls-1" width="200" height="100"/></g><g id="Layer_2-2-2" data-name="Layer 2-2"><g id="rbrLGY.tif"><g id="_Group_" data-name=" Group "><path class="cls-2" d="M149.55,59.75V69.86h-26.2l-1.94-1.92-.11,1.94H110.17L106,65.31V62.58l-.2,0L104,65.69c-2.25-2.43-4.61-4.61-5.92-7.64l-.2.07V69.88H86.64l-2-2.09v2.12H74.26c-1.69-2-3.67-3.74-5.08-6s-2.81-4.45-4.37-6.64V69.86H53.65l-4.1-4.54v-35H60.66a45.87,45.87,0,0,1,4.7,5.44c1.32,2,2.59,4,4,6V30.34H80.51l2,2v-2H93.32a30.79,30.79,0,0,1,7.17,9.78h.24l5.66-9.8H117.1l2.07,2v-2h26.31l4.06,4.5V45.06l-1.74.13,1.74,2V57.41h-2Zm-5,4.81V55.83h-15.1V52.11h15.1V43.26h-15.1V39.74h15.08V31.07H120V64.54h24.62Zm-28.31,0V31h-9.56L99.79,43,92.88,31.07H83.32V64.54h9.53V48H93l6.79,11.7L106.53,48l.24.07V64.56h9.47Zm-36.64,0V31H70.11V46.4h-.16L60.13,31.07h-9.8V64.54h9.51V48H60L70.56,64.6h9.07Z"/></g></g></g></g></g></g></svg>