<svg xmlns="http://www.w3.org/2000/svg" viewBox="0 0 200 100"><defs><style>.cls-1{fill:none;}.cls-2{fill:#fff;}</style></defs><title>Asset 6</title><g id="Layer_2" data-name="Layer 2"><g id="Layer_1-2" data-name="Layer 1"><rect class="cls-1" width="200" height="100"/></g><g id="Layer_2-2" data-name="Layer 2"><g id="Layer_2-3" data-name="Layer 2"><g id="svg3336"><path class="cls-2" d="M38,62.82a12.46,12.46,0,1,1-.29-24.93h.43a12.46,12.46,0,1,1,.29,24.93ZM47.54,50.4A9.5,9.5,0,1,0,38,59.82H38A9.47,9.47,0,0,0,47.54,50.4Z"/><path class="cls-2" d="M110.55,58.86V60.5h-8.41V58.93l.34-.11c1.13-.18,1.58-.65,1.62-1.79s0-2.05,0-3.1V45.17c0-1.94,0-1.95-2-2.24a5.46,5.46,0,0,1,0-1.12.93.93,0,0,1,.49-.63c1.76-.53,3.57-1,5.37-1.49a6.31,6.31,0,0,1,1.23-.07v8.86l.17.07c.12-.2.25-.41.37-.59a4.6,4.6,0,0,1,5.13-1.79,3.73,3.73,0,0,1,3,3.64c.14,2.29,0,4.59.13,6.89a3.15,3.15,0,0,0,.52,1.64c.24.34.82.46,1.31.7v1.49h-8.38a11.81,11.81,0,0,1,0-1.27.56.56,0,0,1,.34-.41,1.23,1.23,0,0,0,1.06-1.35c0-2.35.07-4.7,0-7a1.61,1.61,0,0,0-1.55-1.68h-.13a2,2,0,0,0-2,1.82c0,2.27,0,4.54,0,6.82A1.33,1.33,0,0,0,110.55,58.86Z"/><path class="cls-2" d="M58.94,52.65c0,1.47,0,2.91,0,4.35,0,.9.59,1.43,1.57,1.64a9.65,9.65,0,0,0,1.15.16c.35,0,.71,0,1.1.06v1.64H51.42V58.92c1.81-.41,2.12-.79,2.13-2.64V44.37c0-1.92-.29-2.29-2.13-2.72V40a.67.67,0,0,1,.21-.08c3.43,0,6.86,0,10.29.14a7.8,7.8,0,0,1,5.09,2,5.69,5.69,0,0,1-.53,8.73,10.74,10.74,0,0,1-6.3,1.78h-1ZM59,41.8v8.91a3.33,3.33,0,0,0,3.85-2.05A6.31,6.31,0,0,0,63,44.26,3.4,3.4,0,0,0,59,41.8Z"/><path class="cls-2" d="M157.42,42.93a8,8,0,0,1,0-1.28.76.76,0,0,1,.46-.47q2.64-.77,5.29-1.46a7.72,7.72,0,0,1,1.31-.1V52.8a36.74,36.74,0,0,0,3.35-1.91,1.43,1.43,0,0,0-.41-2.5,6.53,6.53,0,0,0-.87-.23V46.49h7.6a1.69,1.69,0,0,1-.64,2.05l-4.06,2.78c.53.82,1.14,1.72,1.76,2.64.73,1.09,1.46,2.19,2.22,3.28a2.83,2.83,0,0,0,1,1.07c1.07.46,1,1.28.84,2.24-.25,0-.53,0-.8,0-1.55,0-3.1,0-4.65,0a1.17,1.17,0,0,1-1.18-.64c-1.15-1.9-2.34-3.77-3.52-5.65-.13-.21-.28-.41-.41-.62l-.26,0c.07,1.39.1,2.79.26,4.17a1.23,1.23,0,0,0,.82.82c.77.12.79.57.73,1.15,0,.2,0,.41,0,.67h-8.78V58.91l.52-.1a1.53,1.53,0,0,0,1.42-1.49,20.79,20.79,0,0,0,.09-2.09V45.31C159.5,43.31,159.43,43.23,157.42,42.93Z"/><path class="cls-2" d="M138.2,61c-4.42,0-7.33-3.11-7.31-7.73a7.34,7.34,0,1,1,14.68.26C145.5,58,142.48,61,138.2,61Zm1.74-7.53h-.09c0-.85.06-1.71,0-2.55a12,12,0,0,0-.51-2.71,1.7,1.7,0,0,0-1.1-.79,1,1,0,0,0-1.23.74,4.38,4.38,0,0,0-.39,1.4c-.08,2.27-.14,4.52-.11,6.8a9.41,9.41,0,0,0,.44,2.34,1.28,1.28,0,0,0,2.44,0,5.21,5.21,0,0,0,.33-1.34C139.82,56.11,139.87,54.8,139.94,53.49Z"/><path class="cls-2" d="M130.43,58.88v1.64h-9.85V58.93c1.5-.41,1.83-.73,1.86-2.25.06-2.55,0-5.11,0-7.76h-2.1V47.82l.82-.16a1.51,1.51,0,0,0,1.37-1.6,6.79,6.79,0,0,1,6.09-6.45,11.93,11.93,0,0,1,6.16,1c-.7,1.77-1.35,3.51-2.1,5.19-.09.21-.72.17-1.07.24-.17-1-.25-1.76-.47-2.52a2.34,2.34,0,0,0-2.61-1.92,2.48,2.48,0,0,0-2,2.64,4.93,4.93,0,0,0,.09.92c.34,1.81.52,2,2.32,2h1.37V48.9h-2.79v7.43c0,1.86.48,2.36,2.36,2.5C130,58.83,130.19,58.86,130.43,58.88Z"/><path class="cls-2" d="M158.11,46.16v5c-.75,0-1.46,0-2.18,0a2.71,2.71,0,0,0-2.87,3v2.25c0,1.64.57,2.23,2.2,2.35l.68.06v1.64H146V58.93c1.72-.45,2-.74,2-2.58,0-1.6,0-3.2,0-4.8s-.27-1.84-1.88-2V47.82c2.13-.49,4.15-1.68,6.52-1.71v5.34a24.92,24.92,0,0,1,1.08-3.15A3.69,3.69,0,0,1,158.11,46.16Z"/><path class="cls-2" d="M102.19,47.34l-1.91,5.14-1.07-.21c-.2-.75-.34-1.48-.59-2.18A2.6,2.6,0,0,0,96,48.26a2.53,2.53,0,0,0-2.46,1.87,5.22,5.22,0,0,0,.88,5.38c1.86,2.12,5,1.77,6.8-.69,1.16.3,1.17.3.82,1.43-.67,2.21-1.81,4-4.23,4.58a6.29,6.29,0,0,1-8.08-5.75,9.44,9.44,0,0,1,.82-5.13,6.52,6.52,0,0,1,5.57-3.87A10.33,10.33,0,0,1,102.19,47.34Z"/><path class="cls-2" d="M85.17,47.16h3.51v1.71H85.39c-.11.11-.17.16-.17.19,0,2.35-.09,4.7,0,7,.06,1.47,1.07,2.13,2.52,1.85.41-.07.79-.2,1.19-.3.69.94.71,1-.15,1.74a6.3,6.3,0,0,1-5.39,1.52,3.74,3.74,0,0,1-3.18-3.76c-.11-2.42-.06-4.85-.08-7.27v-1H78.28c-.24-.79-.09-1.17.72-1.47a7.75,7.75,0,0,0,4.59-4c.35-.77.8-.87,1.56-.66Z"/><path class="cls-2" d="M69.09,60.51V58.92c1.73-.39,2-.72,2-2.46v-5c0-1.53-.23-1.78-1.84-1.89V47.83c2.22-.53,4.36-1.6,6.87-1.75,0,.35,0,.62,0,.9v9.68c0,1.49.46,2,2,2.23v1.64Z"/><path class="cls-2" d="M73.67,40.19a2.74,2.74,0,0,1,2.77,2.71v0a2.81,2.81,0,0,1-2.81,2.8A2.75,2.75,0,0,1,70.88,43s0-.05,0-.08a2.69,2.69,0,0,1,2.7-2.69Z"/><path class="cls-2" d="M32.89,57.48l-1.8-1.79L40.67,46l-1.12-1.2h4.11v4.07L42.4,47.75Z"/><path class="cls-2" d="M37.6,43.49v4.07L36.34,46.4l-6.42,6.53-.27,0c-.09-1-.21-1.9-.25-2.87,0-.2.24-.44.41-.61L34,45.28l.6-.63L33.5,43.5Z"/><path class="cls-2" d="M45,54.91,43.8,53.8c-.19.18-.38.33-.55.5-1.36,1.35-2.73,2.67-4.05,4.05a1.73,1.73,0,0,1-1.64.62l-2.05-.3L42,52.06,40.86,50.8H45Z"/></g></g></g></g></svg>