<svg xmlns="http://www.w3.org/2000/svg" viewBox="0 0 200 100"><defs><style>.cls-1{fill:none;}.cls-2{fill:#fff;}</style></defs><title>Asset 8</title><g id="Layer_2" data-name="Layer 2"><g id="Layer_1-2" data-name="Layer 1"><rect class="cls-1" width="200" height="100"/></g><g id="Layer_2-2" data-name="Layer 2"><g id="Layer_2-3" data-name="Layer 2"><g id="svg2"><g id="g10"><g id="g12"><path id="path14" class="cls-2" d="M140.8,62a2.91,2.91,0,0,0,.91-2.11,3,3,0,0,0-.9-2.05L117.25,34.27l-7.11,7.11,18.54,18.55H102.41a4.51,4.51,0,0,1-3.16-1.3L87.49,46.83a6.88,6.88,0,0,0-4.71-1.89H68.34V40h14.9a10.55,10.55,0,0,1,7.51,3.14L99.56,52l7.12-7.11-9-9A20.45,20.45,0,0,0,83.22,30H58.29V55H79.37a5,5,0,0,1,3.5,1.48L94.42,68A6.79,6.79,0,0,0,98.94,70h31.92a5,5,0,0,0,3.44-1.45L140.83,62h0"/></g></g></g></g></g></g></svg>