<svg xmlns="http://www.w3.org/2000/svg" viewBox="0 0 200 100"><defs><style>.cls-1{fill:#fff;}.cls-2{fill:none;}</style></defs><title>Asset 1</title><g id="Layer_2" data-name="Layer 2"><g id="Layer_1-2" data-name="Layer 1"><path class="cls-1" d="M67,54c-2.72-1.28-7.28.41-8.5,3.14a2.84,2.84,0,0,0,2.06,3.94.38.38,0,0,0,.31-.1.33.33,0,0,0,0-.29c-.18-.3-.4-.58-.58-.88-.61-1.06-.62-1.24.16-2.19a7.05,7.05,0,0,1,3.08-2.27c1.48-.52,3-.33,3.62.48s.46,2.4-.41,3.63a8.48,8.48,0,0,1-4.15,3.15c-3.35,1.2-5.64-.28-5.91-3.52a5.84,5.84,0,0,1,0-1.58,32.66,32.66,0,0,1,1.15-5.13c1.41-3.79,3-7.51,4.54-11.26,1.11-2.72,2.24-5.42,3.29-8.16a2.58,2.58,0,0,0-.88-3,2.14,2.14,0,0,0-2.62,0,33,33,0,0,0-7.77,6,13.67,13.67,0,0,0-2.94,4.56,7.24,7.24,0,0,0-.27,1.19c0,.09.08.21.12.31a1.34,1.34,0,0,0,.22-.25c.16-.31.31-.63.46-1,2.17-4.59,6.13-7.14,10.51-9.2.41-.19.86-.46,1.31,0a1.21,1.21,0,0,1,.18,1.46c-.34.88-.61,1.78-1,2.63-1.71,3.8-3.51,7.56-5.16,11.39a32.37,32.37,0,0,0-2.66,10.25A29.55,29.55,0,0,0,56,61.54a5.18,5.18,0,0,0,5.43,3.37c3.48-.33,7-3.28,7.6-6.83A3.57,3.57,0,0,0,67,54Z"/><path class="cls-1" d="M117,54c-1,.38-2.11.72-3.14,1.13-.49.19-.63,0-.63-.43q0-2.38,0-4.77h0c0-1.41.08-2.83,0-4.23A20.32,20.32,0,0,0,111.78,39a5.18,5.18,0,0,0-7.11-2.85,16.52,16.52,0,0,0-3.58,2.51,5.24,5.24,0,0,0-1.59,2.47,41.76,41.76,0,0,0-.63,5.22c0,.13.12.27.18.4a1.84,1.84,0,0,0,.14-.31,1.72,1.72,0,0,0,0-.35c.14-3.84,2.35-6.32,5.56-7.94,2.11-1.06,4.93-1,6,2.48A21.7,21.7,0,0,1,112,47.58c0,2.41-.1,4.82-.16,7.23a3.87,3.87,0,0,1-1.2,2.83,12.78,12.78,0,0,0-1.56,1.91,3.59,3.59,0,0,0-.64,3c.09.37.71,1,.85.9,1-.41,1.39.32,2,.75a2.24,2.24,0,0,0,.95.39,7.73,7.73,0,0,0,8.56-7.73C120.74,54.45,118.85,53.36,117,54Zm2.23,3.31A4.54,4.54,0,0,1,118.7,59a7.61,7.61,0,0,1-6.89,3.9h-.48c-.48,0-.42-.28-.22-.56a8.29,8.29,0,0,0,1.58-3.69A1,1,0,0,1,113,58a8.21,8.21,0,0,1,4.88-2.19C119,55.8,119.41,56.25,119.27,57.33Z"/><path class="cls-1" d="M152.29,48.23c-.24-.59-.64-.52-1.15-.43-1.15.21-2.32.37-3.48.48a64.23,64.23,0,0,1-11.62.43,22.06,22.06,0,0,1-3.43-.7c-.44-.11-.93-.53-1.27,0a1.85,1.85,0,0,0-.21,1.28,15.26,15.26,0,0,0,2,5.77,3.08,3.08,0,0,1,.51,3A18.19,18.19,0,0,1,132,60.72c-.06.09-.52,0-.52,0-.26-1.28-1.48-2.14-1.32-3.68.13-1.25-1.07-2.1-2.49-2.26a2.38,2.38,0,0,0-2.6,1.67c-.34,1.19-.58,2.46.5,3.46.51.46.09.58-.2.65a17.57,17.57,0,0,1-1.91.29c-.52.06-1,.23-.89.81a1.74,1.74,0,0,0,.84,1.15,2.72,2.72,0,0,0,1.72-.12c1.19-.47,2.34-1.06,3.49-1.64.63-.32,1-.24,1.21.4a15,15,0,0,0,.45,1.69,1.23,1.23,0,0,0,2.24.23c.39-.51.65-1.12,1-1.65,2-2.87,2.19-5.72,0-8.63a5.66,5.66,0,0,1-.76-1.76c-.14-.46.13-.8.65-.82.35,0,.7,0,1.06.06l7.87.36c2.52-.24,5.33-.49,8.13-.79a3.52,3.52,0,0,0,1.48-.51A1.08,1.08,0,0,0,152.29,48.23Zm-24.19,10a1.21,1.21,0,0,1-.34,0,3.37,3.37,0,0,1-1.19-.49c-.21-.2.62-.84,1.27-.92.11,0,.23,0,.68,0,.15.11.67.3.87.67S128.74,58.23,128.1,58.2Z"/><path class="cls-1" d="M49,41.15c-.08-.2-.44-.3-.67-.45-.15.23-.43.47-.42.69a22,22,0,0,0,.38,3.12,7,7,0,0,1,.1,3.46A23.07,23.07,0,0,0,48,55a2.92,2.92,0,0,0,.16.61c0-.23.1-.45.12-.68.16-2.05.3-4.1.47-6.15,0-.18.2-.35.3-.52a2.44,2.44,0,0,1,.31.56,46.91,46.91,0,0,1,1,14.53c0,.45-.09,1.07-.38,1.3-.9.71-.11,1.13.21,1.56A.64.64,0,0,0,51.34,66a5.78,5.78,0,0,0,.51-1.85c.14-1.81.18-3.63.27-5.45a78.63,78.63,0,0,0-1.66-13.46A29.43,29.43,0,0,0,49,41.15Z"/><path class="cls-1" d="M85.4,59.6c-.48-.32-1.24-.44-1.46-.87s.2-1,.3-1.59c.05-.29,0-.58.09-1.29a12.43,12.43,0,0,0-.88-2c-.52-.83-1.09-.87-1.92-.37A4.12,4.12,0,0,0,80.28,59c.66,1,.66,1-.35,1.69a2.67,2.67,0,0,1-.32.14A1,1,0,0,0,79,62.17,2.4,2.4,0,0,0,80,63.3c.56.31,1-.16,1.31-.59s.61-1,1-1.45c.19-.23.62-.53.81-.46a22.91,22.91,0,0,1,3.15,1.48,1.17,1.17,0,0,1,.43,1.56,1.22,1.22,0,0,0,.26,1.45c.52.55,1,.45,1.33-.25a3.41,3.41,0,0,0-.75-3.89A12.46,12.46,0,0,0,85.4,59.6ZM82.5,57.73c-.1.18-.55.36-.66.29s-.58-.54-.54-.77a2.7,2.7,0,0,1,1.48-2c.12-.06.39.2.73.39C83.14,56.39,82.87,57.08,82.5,57.73Z"/><path class="cls-1" d="M105.54,61.55c-.58.09-1.13.3-1.71.41a17.14,17.14,0,0,1-6.12.23c-1.94-.33-2.62-1.06-2.38-3,.37-3,.9-6,2.75-8.62A4.39,4.39,0,0,0,98.75,49a1,1,0,0,0-.41-.86c-.17-.1-.63.13-.84.34a2.46,2.46,0,0,0-.51.91c-.93,2.53-1.91,5-2.74,7.61a11,11,0,0,0-.43,3.3A3.27,3.27,0,0,0,96.66,64a28.58,28.58,0,0,0,3.29.46,15.35,15.35,0,0,0,5.2-.93,2.63,2.63,0,0,0,1.13-.77,1.14,1.14,0,0,0,0-1C106.21,61.62,105.78,61.52,105.54,61.55Z"/><path class="cls-1" d="M79.26,54.64a1.2,1.2,0,0,0,.18-.29c.35-1.31-.37-2-2.57-2a11.32,11.32,0,0,0-6.52,3.87,2,2,0,0,0,0,2.6,8.7,8.7,0,0,0,1.37,1.35c.58.49,1.22.91,1.83,1.37a3.8,3.8,0,0,1,1.6,3.85c-.11.69-.3,1.37-.46,2a8.3,8.3,0,0,0-.26,1.19c0,.64.31,1,.95,1s.85-.19.92-.77.26-1.37.36-2.07a7.21,7.21,0,0,0-3-7.22c-.38-.28-.78-.52-1.15-.81-.85-.68-.9-1-.2-1.69a14.86,14.86,0,0,1,4.52-3.3c1.17-.55,1.33-.46,2.17.69A1.5,1.5,0,0,0,79.26,54.64Z"/><path class="cls-1" d="M99.39,60.12a8.53,8.53,0,0,0,1.22,0c.17,0,.7-.06,1.21-.14a2.53,2.53,0,0,0,.66-.2,1.4,1.4,0,0,0,.71-2.14c-.09-.15-.46-.34-.51-.29-1,.82-2.1.52-3.18.55-.52,0-.91.11-1,.73C98.45,59.45,98.74,60,99.39,60.12Z"/><rect class="cls-2" width="200" height="100"/></g></g></svg>