<svg xmlns="http://www.w3.org/2000/svg" viewBox="0 0 200 100"><defs><style>.cls-1{fill:none;}.cls-2{fill:#fff;}</style></defs><title>Asset 13</title><g id="Layer_2" data-name="Layer 2"><g id="Layer_1-2" data-name="Layer 1"><rect class="cls-1" width="200" height="100"/></g><g id="Layer_2-2" data-name="Layer 2"><path class="cls-1" d="M57.12,57h-.06a6.33,6.33,0,0,1-5.13.68,7.71,7.71,0,0,0,2.1.73,9.75,9.75,0,0,0,1.74.16h0A4,4,0,0,0,58,58C57.72,57.67,57.43,57.33,57.12,57Z"/><path class="cls-1" d="M114.43,46.67c-.11.36-.22.71-.32,1.07l-.1.1a3.76,3.76,0,0,0-1.85,0,2.41,2.41,0,0,0-1.36,2l2,2.18A4.79,4.79,0,0,0,114,54a4.17,4.17,0,0,0,3.91.2,2.46,2.46,0,0,0,1.17-2.32,5.51,5.51,0,0,0-1.48-2.91l-2.32-2.67-.57-.59c-.1.34-.2.67-.31,1Z"/><path class="cls-1" d="M100.5,59.75,99,59.51a1.35,1.35,0,0,0-.23.51,5.83,5.83,0,0,0,1.76-.27Z"/><polygon class="cls-1" points="76.65 41.58 76.65 41.58 76.95 40.14 76.95 40.14 76.65 41.58"/><path class="cls-1" d="M41.2,39.74l-.38,0-.14.67-.61,3.41,0,.25a1.58,1.58,0,0,0,.52-.21,4.46,4.46,0,0,0,2.23-3,1.94,1.94,0,0,0-.06-1A5.7,5.7,0,0,0,41.2,39.74Z"/><path class="cls-1" d="M76.65,41.58l-.35-.37a20.84,20.84,0,0,0-.42,2.3,10.57,10.57,0,0,0,1.58-1c-.27-.35-.53-.64-.81-.94h0Z"/><path class="cls-1" d="M121.41,40.71a1.73,1.73,0,0,0-.69.8,2.81,2.81,0,0,0,1.1,2.94l2.66,3,.9,1a5.17,5.17,0,0,0,.15-.9c-.53-.68-1.1-1.24-1.68-1.92l.21-1.4c-.45-.58-1-1.09-1.42-1.64a16.3,16.3,0,0,0,.28-2,2.25,2.25,0,0,0-.58-.09,1.72,1.72,0,0,0-.93.26l0-3.27h0Z"/><path class="cls-1" d="M167.44,52.36a1.2,1.2,0,0,0,1.11-.35l-.35-.25a6.51,6.51,0,0,0-.94.43A2.06,2.06,0,0,0,167.44,52.36Z"/><path class="cls-2" d="M141.21,43.73a1.52,1.52,0,0,0-1.58.19c-1.13.87-1.36,2.34-1.73,3.64a12.7,12.7,0,0,0-.35,4.65A2.19,2.19,0,0,0,139,54a1.73,1.73,0,0,0,1.58-.38c1.06-1,1.27-2.5,1.61-3.87l.19-1.25h0a14.87,14.87,0,0,0,.15-3A2.21,2.21,0,0,0,141.21,43.73Z"/><path class="cls-2" d="M102.89,50.56c.87-.11,1.38-1,1.71-1.72l.27-.84c.3-1.11.64-2.61.06-3.68a1.85,1.85,0,0,0-1.84-1,2.36,2.36,0,0,0-1.53,1.56c-.47,1.48-1.11,3.5-.17,5A1.52,1.52,0,0,0,102.89,50.56Z"/><path class="cls-2" d="M52,53.63c1.86-.16,2.24-2.24,2.67-3.68.31-1.74,1-3.67.35-5.49h0a2,2,0,0,0-1.38-1.14A1.8,1.8,0,0,0,52,43.9a11.08,11.08,0,0,0-1.84,5.42,7,7,0,0,0,.12,3.2C50.7,53.07,51.21,53.72,52,53.63Z"/><path class="cls-2" d="M43.22,38.54a3.66,3.66,0,0,0-1.75-1.34,8.93,8.93,0,0,0-3.16-.44h-.05l-.8,4.46-.7,4,0,.1c.2.19.25.33.42.4A7.18,7.18,0,0,0,42.33,44a5.23,5.23,0,0,0,1.38-2.23A3.41,3.41,0,0,0,43.22,38.54Zm-.42,2.39a4.46,4.46,0,0,1-2.23,3,1.58,1.58,0,0,1-.52.21l0-.25.61-3.41.14-.67.38,0a5.7,5.7,0,0,1,1.53.22A1.94,1.94,0,0,1,42.8,40.93Z"/><path class="cls-2" d="M96.69,56c-.77.9-1.61,2-1.17,3.34A2.76,2.76,0,0,0,97.08,61a8,8,0,0,0,4.65-.35h0a6.3,6.3,0,0,0,2.41-1.45,3,3,0,0,0,.47-.75h0a1.28,1.28,0,0,0-.5-1.26c-.77-.79-2.05-.35-3-.29a8.86,8.86,0,0,1-2.57-.16A10.85,10.85,0,0,1,96.69,56ZM99,59.51l1.52.23h0a5.83,5.83,0,0,1-1.76.27A1.35,1.35,0,0,1,99,59.51Z"/><path class="cls-2" d="M173.11,49.78c0-.07-.16-.12-.11-.22.67-.31,1.35-.59,2-.93a5.75,5.75,0,0,0-.14-1,8.6,8.6,0,0,0-2.27-4.17c-1.05-1-2-2.18-3.52-2.47a7.46,7.46,0,0,0-7.35,3,23.22,23.22,0,0,0-2.56-2.62,3.77,3.77,0,0,0-3.34,0c-.25.07-.46.25-.71.3-.45-.45-.8-.9-1.22-1.38l-.11,0c-1.06.7-2.18,1.38-3.23,2.09L147,44.57h-.14c-1.21-1.32-2.42-3-4.25-3.41a7.57,7.57,0,0,0-6,1.37l-.57-.61h-.09a4.68,4.68,0,0,1-1.77.22c0-.53.22-1,.26-1.55l-2.14-2.49-.07,0-3.35,2.14s-.12.09-.17,0l.63-3.45,0-.14-2-2.25-.07,0-2.74,0-.14,0a1.33,1.33,0,0,1-.25.59.92.92,0,0,1-.82.22c-.58-.17-1.18-.36-1.79-.52v1.06c.54.15,1.07.33,1.61.47a1.78,1.78,0,0,0,1.83-.54l.17-.25,1.26,0,0,0-.88,5.16-.16,1h0l0,0-1.27,0a3.51,3.51,0,0,0-.59-3,4,4,0,0,0-2-1.32l0,3.27a1.72,1.72,0,0,1,.93-.26,2.25,2.25,0,0,1,.58.09,16.3,16.3,0,0,1-.28,2c.47.56,1,1.06,1.42,1.64l-.21,1.4c.58.68,1.15,1.24,1.68,1.92a5.17,5.17,0,0,1-.15.9l-.9-1-2.66-3a2.81,2.81,0,0,1-1.1-2.94,1.73,1.73,0,0,1,.69-.8l0-3.27a2.86,2.86,0,0,0-1.6,0,2.67,2.67,0,0,0-1.89,1.93c-.32,1.45.56,2.63,1.33,3.62,1.71,2.14,3.61,4,5.07,6.27a5.57,5.57,0,0,1-.09,5A6,6,0,0,1,120,57.85c-2.31.53-4.29-.54-6.27-1.21a1.51,1.51,0,0,0-1.09,0,1.2,1.2,0,0,0-.61.83,3.05,3.05,0,0,1-.89.31l-.53-1.5L109,51.68v0c.47-.16.94-.32,1.4-.43a7,7,0,0,0,5.95,4.38,3.65,3.65,0,0,0,3.47-1.88,3.42,3.42,0,0,0,0-3.12c-.94-1.81-2.58-3.25-3.92-4.82a6.94,6.94,0,0,1-1.9-5.32,5.07,5.07,0,0,1,1.78-3.55,5.62,5.62,0,0,1,4.57-1.31,9.12,9.12,0,0,1,1,.23V34.78a7.15,7.15,0,0,0-3.62-.18,6.09,6.09,0,0,0-4,2.92,8.5,8.5,0,0,0-1,3.1,5.81,5.81,0,0,0-2.6.6h0a5.63,5.63,0,0,0-2,1.67,6.89,6.89,0,0,0-2.09-1.52,7.75,7.75,0,0,0-7.65,1l-.06.1a5.4,5.4,0,0,0-1.24,1.31l-.09.06c-.8-.72-1.27-1.67-2.2-2.28a4.18,4.18,0,0,0-4,.09c-.49-.53-.94-1-1.42-1.55a.89.89,0,0,0-.49.21L84,43.46h-.12l.1-.73-.47-.54a3.05,3.05,0,0,0,.69-.74,3.13,3.13,0,0,0-.73-3.28c-.84-.92-1.63-2.08-2.91-2.4a4.63,4.63,0,0,0-2.77.55l-.4,1.91A3.7,3.7,0,0,1,79.81,37a1.63,1.63,0,0,1,1.55.74c.31,1-.57,1.82-1.21,2.4a2.91,2.91,0,0,1-2.89.49,1.3,1.3,0,0,1-.3-.49l-.3,1.44c.28.3.54.6.81.94a10.57,10.57,0,0,1-1.58,1,20.84,20.84,0,0,1,.42-2.3l.35.37.3-1.44a1.93,1.93,0,0,1,0-1.29,2.65,2.65,0,0,1,.37-.6l.4-1.91c-.24.12-.47.25-.69.39v-.33L74.7,33.74l-.1,0-4.87,3.13c-.31.17-.62.4-.95.55,0-.4.16-.88.2-1.26l0-.06-2.13-2.36-.1,0-8,5-1.15.77v.07c.46.75,1,1.56,1.45,2.35l.93,1.05c-.09.43-.14.89-.26,1.3l-.14-.12C58.3,42.71,57,41,55,40.71l-.67-.09a7.18,7.18,0,0,0-2.57.28c-.42.1-.78.36-1.2.42A6.43,6.43,0,0,0,50,39.89a18.45,18.45,0,0,0-2.65-3.31,9,9,0,0,0-5.12-2.42l-.85-.1a31.37,31.37,0,0,0-10.8.56c-2,.42-4.29,1.14-5.27,3.13a3.57,3.57,0,0,0,.14,3.35c1.21,1.38,2.34,3.45,4.38,3.64a3.22,3.22,0,0,0,1.55-.35v0l-1.36,7.77a2.32,2.32,0,0,1-.28.87c-.7.84-2,.63-3,.58l-.05.2-.59,3.13,2.09,2.36h.94l10.6,0c.2-1,.36-2.05.54-3.08l-2-2.29c.12-.94.31-1.84.48-2.76l0,0c.27.52.52,1,.8,1.5a31.53,31.53,0,0,0,3.47,4.86,19.33,19.33,0,0,0,13.38,7.3h0a18.36,18.36,0,0,0,3.78-.09l.09,0a6,6,0,0,0,4.88-3.13,3.59,3.59,0,0,0-.32-3.19c0-.07-.14-.11-.12-.2h0l10,.07,16.57,0a3,3,0,0,0,.06,2.34,14.36,14.36,0,0,0,3,3.34,9.51,9.51,0,0,0,6.19,1.71,12.35,12.35,0,0,0,10.3-6l.07,0c.47.51.92,1,1.37,1.52l.07,0,2.44-.89v-.36a.44.44,0,0,1,.35-.26,4.91,4.91,0,0,1,1,.32c2.21,1.21,5.63,1.57,7.88.16.11,0,.1-.17.22-.16A10.53,10.53,0,0,0,126.91,57a4.64,4.64,0,0,0,2.93,2,10.32,10.32,0,0,0,6.53-2.21l.12,0a7.9,7.9,0,0,0,3.23,1.79A5.74,5.74,0,0,0,145,57.27h.06l1.09,1.21,16.12,0,.09-.09c.15-.89.27-1.79.49-2.65l0,0a7.26,7.26,0,0,0,5.45,2.89,7.12,7.12,0,0,0,3.6-1.06,5.53,5.53,0,0,0,2.62-5.14A5.32,5.32,0,0,0,173.11,49.78ZM51.92,42a5.56,5.56,0,0,1,5.74,1.25,6.88,6.88,0,0,1,.63,6.8,12.32,12.32,0,0,1-1.64,2.52h0a7.12,7.12,0,0,1-3.26,2.31,5.54,5.54,0,0,1-3.44.06,4.72,4.72,0,0,1-2.86-2.6,7.75,7.75,0,0,1-.49-4.49,6.76,6.76,0,0,1,1.47-3.19A9.15,9.15,0,0,1,51.92,42Zm3.84,16.62A9.75,9.75,0,0,1,54,58.41a7.71,7.71,0,0,1-2.1-.73A6.33,6.33,0,0,0,57.06,57h.06c.31.33.61.67.87,1a4,4,0,0,1-2.22.57Zm7.05-6.48a1.72,1.72,0,0,0,.62,1.57,1.39,1.39,0,0,0,.63.29l0,0L63.93,55l-3.7,0s0,.09,0,.12c.27.25.45.52.69.78a2.31,2.31,0,0,1,1.77,1.5A2.67,2.67,0,0,1,62,59.93c-2.15,2.19-5.7,2.24-8.66,1.74a17,17,0,0,1-6.9-2.82,20.73,20.73,0,0,1-6.41-7.57c-.48-1.05-.85-2.15-1.24-3.25l-.7-.77a14.75,14.75,0,0,0-1.66-.12.15.15,0,0,0-.11.12c-.28,2-.68,3.86-1,5.8a2.2,2.2,0,0,0,1.52,1.82,1.58,1.58,0,0,0,.35,0A12.6,12.6,0,0,1,37,56.3H27.39l0-.06a9.5,9.5,0,0,1,.26-1.38c1.11,0,2.34-.14,3-1.13A4.05,4.05,0,0,0,31,52.63l1.32-7.34,1.52-8.14c-.15-.14-.29-.49-.59-.41A6.73,6.73,0,0,0,29.47,38c-.2.21.17.25.23.4a1.67,1.67,0,0,1,.58,1.47,2,2,0,0,1-1.06,1.38A2.31,2.31,0,0,1,26.85,41a2.55,2.55,0,0,1-.4-2.68c.69-1.55,2.45-2.07,4-2.51A31.08,31.08,0,0,1,36.17,35a35.26,35.26,0,0,1,5.16.18l1.5.18a8,8,0,0,1,2.65.78,5.47,5.47,0,0,1,2.62,4A6,6,0,0,1,44.67,46a8,8,0,0,1-1.71.62,14.3,14.3,0,0,0,.37,2.08,14.79,14.79,0,0,0,3.78,6.68,13,13,0,0,0,7.2,4.23c1.94.15,4.2.16,5.27-1.56a2,2,0,0,0-.06-2A2.66,2.66,0,0,0,57.3,55a5.56,5.56,0,0,1,.16-1l0,0a1.88,1.88,0,0,0,1.63-.9,5.71,5.71,0,0,0,.27-1.22l.73-4.09,1.08-5.87a1,1,0,0,0-.54-.94,1.3,1.3,0,0,0-.92-.1,4.63,4.63,0,0,1-.61-1c.11-.19.33-.22.5-.35l6-3.82,0,.49Zm9,3-6.58-.06,0,0c0-.36.09-.69.14-1.05l.1-.06a2.31,2.31,0,0,0,1.66-.9l.14-.41L68,48.4l.88-5.12c.06-.54.36-1.16,0-1.68a1.26,1.26,0,0,0-.8-.62,5.22,5.22,0,0,0-.62,0c-.21-.33-.41-.69-.59-1l.11-.09,4.79-3.05,1.88-1.19-.28,1.89L70.88,52a1.69,1.69,0,0,0,.63,1.79A1.59,1.59,0,0,0,72,54,5.66,5.66,0,0,1,71.81,55.13Zm8.51-12.42-.53,3.2-.93,5.35c-.09.69-.43,1.61.06,2.22a1.62,1.62,0,0,0,1.32.73,3.91,3.91,0,0,1-.14.93l-7,0a7.76,7.76,0,0,1,.15-.93,6.11,6.11,0,0,0,1.19-.41,2.18,2.18,0,0,0,.74-.83c.3-1.51.52-3,.78-4.48a1.34,1.34,0,0,0-.77-1.15c-.17,0-.37,0-.54,0A6.77,6.77,0,0,1,74,46.07l6.36-3.85.1,0c0,.19,0,.24-.1.54Zm35,3.54,2.32,2.67a5.51,5.51,0,0,1,1.48,2.91,2.46,2.46,0,0,1-1.17,2.32A4.17,4.17,0,0,1,114,54a4.79,4.79,0,0,1-1.29-1.88l-2-2.18a2.41,2.41,0,0,1,1.36-2,3.76,3.76,0,0,1,1.85,0l.1-.1c.1-.36.21-.71.32-1.07h0c.11-.34.21-.67.31-1ZM100,53.66c.57.71,1.66.5,2.52.47,1.8-.16,3.93-.43,5.58.25a1.5,1.5,0,0,1,.58,1.57,8.47,8.47,0,0,1-3,4.18,11,11,0,0,1-11.26,1.69c-.87-.4-1.88-.94-2.05-2a3.21,3.21,0,0,1,1.48-2.77,14.42,14.42,0,0,1,2.24-1.3c.06-.07-.15-.29-.2-.38s-.08-.14-.21-.18h-6.9a5.06,5.06,0,0,1,.15-1,2.36,2.36,0,0,0,1.72-1.08l.1-.38.93-5.42a1.43,1.43,0,0,0-.21-1.09,1.78,1.78,0,0,0-1.88-.63,3.48,3.48,0,0,0-2.24,2.55l-.7,4.29a1.67,1.67,0,0,0,1.05,1.58,5.66,5.66,0,0,1-.17,1.11h-6.2a8.9,8.9,0,0,1,.15-1,2,2,0,0,0,1.62-1.29L84,48.14a1.33,1.33,0,0,0-.93-1h-.56c-.21-.32-.41-.67-.59-1L82,46l6.29-3.85c-.07,1-.33,2-.47,3,.12.12.21.27.37.3A16.26,16.26,0,0,1,91,42.91a3.65,3.65,0,0,1,3.82-.33,2.2,2.2,0,0,1,.7,2.15l0,.24-1.14,7.66A1.65,1.65,0,0,0,95.41,54a2,2,0,0,0,1,.16,3,3,0,0,1,2.05-2.66,3.94,3.94,0,0,0,.52-.22c-.17-.25-.43-.45-.63-.69a5.07,5.07,0,0,1-.64-5A5.61,5.61,0,0,1,101,42.34c2.26-.8,5.21-.46,6.81,1.26a8.37,8.37,0,0,1,.88,1c.12,0,.14-.16.2-.25A4.2,4.2,0,0,1,112.42,42c-.2.94-.48,1.83-.74,2.74a3.1,3.1,0,0,0-2.53.74c-1,.92-1,2.37-1.6,3.47a5.52,5.52,0,0,1-4.41,3,7.65,7.65,0,0,1-3.29-.53.93.93,0,0,0-.26.59A1.63,1.63,0,0,0,100,53.66Zm59.79,1.74h-6.56a7.77,7.77,0,0,1,.2-1.19,1.92,1.92,0,0,0,1.66-1.1l.15-.61.83-5.23A2,2,0,0,0,155,45.65a1.88,1.88,0,0,0-1.88.33,3.6,3.6,0,0,0-1.29,2.21L151,52.76a1.5,1.5,0,0,0,.89,1.36l.25.07a11,11,0,0,1-.17,1.28h-6.73l.19-1.13c.19-.06.4-.06.59-.11a2,2,0,0,0,1.46-1l.17-.62.64-3.86a1.4,1.4,0,0,0-.15-1.08,1.23,1.23,0,0,0-1.25-.42,3.61,3.61,0,0,0-1.19.79,9.52,9.52,0,0,1-3.67,6.7,5.34,5.34,0,0,1-4.55.54,7.36,7.36,0,0,1-2.91-2.07l-.12,0c-1.68,1.36-3.65,2.7-6.06,2.68a2.53,2.53,0,0,1-2.33-1.55,7.45,7.45,0,0,1,0-3.61l1-5.45c-.16-.16-.26-.48-.55-.48v0l-1.36,0,.19-1,5.19-3.25.62-.35c-.11.89-.3,1.77-.45,2.65a2.78,2.78,0,0,0,.43.49h3.44a18.66,18.66,0,0,1-.68,1.81c-.25,0-.48-.15-.75-.17-.9,0-1.84,0-2.74,0l-.07.19-.68,4.18-.27,1.58a1.3,1.3,0,0,0,0,.25,2.35,2.35,0,0,0,1,2.18,2.79,2.79,0,0,0,2.42-.42,9.11,9.11,0,0,0,1.27-.85,9,9,0,0,1,.11-4.36,8,8,0,0,1,6.59-5.58,5.42,5.42,0,0,1,3.75,1.16A5.72,5.72,0,0,1,145.83,46l.35.36c1.19-.77,2.4-1.53,3.59-2.28l2.81-1.84c.09,0,.19-.12.25-.11-.07.7-.25,1.37-.33,2.08a1.46,1.46,0,0,0,.4.47l.14-.06a8.16,8.16,0,0,1,4-2.6,2.47,2.47,0,0,1,2.4.77c.68,1,.43,2.49.21,3.64L159,49.88l-.5,2.67a1.66,1.66,0,0,0,1,1.58l.44.11c0,.41-.11.75-.18,1.16Zm12.5-9.06-4.6,2.19L164.65,50a1.73,1.73,0,0,0,.14.87,4.05,4.05,0,0,0,2.15,2.48,2.58,2.58,0,0,0,2.4-.41,2.77,2.77,0,0,0,.75-.94.76.76,0,0,0-.63-.51.9.9,0,0,1-.41-1,1.47,1.47,0,0,1,.88-1.14,1.61,1.61,0,0,1,1.48.11,1.94,1.94,0,0,1,.47,1.94,5.21,5.21,0,0,1-4,3.83c-2,.42-4.2.09-5.37-1.56a7.13,7.13,0,0,1-1.15-6.42,7.49,7.49,0,0,1,3.76-4.81,5.93,5.93,0,0,1,4.13-.48c1.89.45,2.83,2.44,3.06,4.25ZM168.55,52a1.2,1.2,0,0,1-1.11.35,2.06,2.06,0,0,1-.17-.16,6.51,6.51,0,0,1,.94-.43Z"/><path class="cls-2" d="M168.59,45a2,2,0,0,0-1.51-1.4,1.91,1.91,0,0,0-1.82.77,4.44,4.44,0,0,0-.89,2.79,3.16,3.16,0,0,0,.05,1.08c.09.12.17.26.32.28,1.36-.66,2.74-1.26,4.1-1.93a9.52,9.52,0,0,0-.26-1.6Z"/></g></g></svg>