<svg xmlns="http://www.w3.org/2000/svg" viewBox="0 0 200 100"><defs><style>.cls-1{fill:none;}.cls-2{fill:#fff;}</style></defs><title>Asset 1</title><g id="Layer_2" data-name="Layer 2"><g id="Layer_1-2" data-name="Layer 1"><rect class="cls-1" width="200" height="100"/><g id="PNtyjH.tif"><path class="cls-2" d="M37.76,58.48H38L37.89,60h-.13Z"/><path class="cls-2" d="M61,43.14l-5.86,1.94c-1.37-3.6-4.4-3.86-7.15-3.26a2.47,2.47,0,0,0-2.16,2.27,2.33,2.33,0,0,0,1.81,2.6c2.1.62,4.27,1,6.39,1.6,5.29,1.4,8.16,4.9,7.7,9.42l-7.12,1.45c.59-2.19-.62-3.22-2.4-3.73-2.31-.66-4.7-1.07-7-1.82-4.36-1.44-6.35-4.2-6.21-8.26a9.26,9.26,0,0,1,7-8.71C51.71,35,57.65,37,60.11,41.28,60.44,41.85,60.68,42.47,61,43.14Z"/><path class="cls-2" d="M89.89,52.11l5.37-15.48h8.07l3.91,11.88Z"/><path class="cls-2" d="M140.43,45.73V64.07h-5.87l-8-15Z"/><path class="cls-2" d="M157.73,64.08h-6.79V43.22l6.79-1.6Z"/><path class="cls-2" d="M105.61,58H95.93l-1.87,6.08H88c.85-2.15,1.67-4.25,2.54-6.32.08-.2.55-.26.85-.33l20.28-4.8,3.2,11.42h-7.43Z"/><path class="cls-2" d="M65.47,36.64h6.83V55.58L65.47,57Z"/><path class="cls-2" d="M115.41,36.63h7.42l4.48,7.89-11.91,2.39Z"/><path class="cls-2" d="M122.86,64.08h-5.24V51.19l5.24-1.27Z"/><path class="cls-2" d="M163,36.64v.7l-21.89,4.4v-5.1Z"/><path class="cls-2" d="M86.52,58.57v5.5H67.72v-1Z"/><path class="cls-2" d="M138.2,36.7v5.63l-5.28,1.05V36.7Z"/><path class="cls-2" d="M37.89,60,38,58.47l5.8-1.35a5.56,5.56,0,0,0,2.91,3.6L39,62.28Z"/></g></g></g></svg>