<svg xmlns="http://www.w3.org/2000/svg" viewBox="0 0 200 100"><defs><style>.cls-1{fill:none;}.cls-2{fill:#fff;}</style></defs><title>Asset 1</title><g id="Layer_2" data-name="Layer 2"><g id="Layer_2-2" data-name="Layer 2"><rect class="cls-1" width="200" height="100"/></g><g id="Layer_1-2" data-name="Layer 1"><path class="cls-2" d="M27.28,52.88V45.14H25.14V43l2.14-.29V40.09l4.63-.65v3.29H35v2.41H31.91v7.34c0,1.38.38,2.09,1.74,2.09a9,9,0,0,0,1.48-.12v1.79a8.64,8.64,0,0,1-3.79.81c-2.76,0-4.05-1.22-4.05-4.18ZM58.12,44c1.16,0,1.79.21,1.79,4.31L56,48.5C56.09,44.78,56.65,44,58.12,44Zm-2.05,6.21h8.34c0-5.87-2-7.74-6.21-7.74s-6.9,2.68-6.9,7.29c0,4.76,2.48,7.39,7.28,7.39a7.17,7.17,0,0,0,5.32-2V53.71a11.91,11.91,0,0,1-3.76.48c-2.53,0-3.83-1.31-4.07-4ZM35.52,55.49,37,54.81V39.59l-1.56-.72V37.59l5.77-.93h.39v7.62h.16a7.17,7.17,0,0,1,4.83-1.85c2.36,0,3.53,1.18,3.53,3.74v8.64l1.5.68v1.29H44V55.49l1.5-.68V47.22c0-1.42-.62-2-1.88-2a5.14,5.14,0,0,0-1.91.36v9.19l1.5.69v1.29H35.54V55.49Z"/><path class="cls-2" d="M136.73,43.34v1.27l1.56.72v9.48l-1.49.69V56.8h7.62V55.53l-1.49-.69V42.43h-.39l-5.82.93Zm15.81,10.73V50.29l-1.08.1a2,2,0,0,0-2,2.16c0,1.54.85,2.05,1.74,2.05a1.9,1.9,0,0,0,1.3-.53Zm-3.28-9.76-1,2.85h-2.41V43.49a15.69,15.69,0,0,1,5.34-1.06c3.73,0,6,1.1,6,4.24v8.14l1.48.69v1.05a6.16,6.16,0,0,1-2.61.56c-1.46,0-2.76-.47-3-2h-.14a4.45,4.45,0,0,1-4,2,3.76,3.76,0,0,1-4.05-3.93c0-2.86,1.88-3.33,4.95-4l2.67-.47V46.94c0-1.8-.55-2.69-2.33-2.69-.24,0-.67,0-.95.06ZM159,55.49l1.48-.67V45.34L159,44.62V43.36l5.77-.91h.39v1.86h.16a7.17,7.17,0,0,1,4.83-1.84c2.36,0,3.53,1.17,3.53,3.74v8.64l1.5.69v1.29H167.5V55.54l1.5-.68V47.22c0-1.42-.62-2-1.88-2a5.14,5.14,0,0,0-1.91.36v9.19l1.48.69v1.29h-7.62V55.49ZM130.25,39.6l-1.55-.71V37.62l5.82-.93h.39v17.7l1.48.81v1.21l-5.52.64h-.38V55.6h-.16a4.42,4.42,0,0,1-3.52,1.52c-2.55,0-5.6-1.62-5.6-7,0-5.64,3.12-7.67,6.83-7.67a4.09,4.09,0,0,1,2.26.59V39.6Zm0,14.72V44.86a2.27,2.27,0,0,0-1.59-.51c-1.45,0-2.57,1.31-2.57,5.26,0,3.46.88,5,2.72,5a3.44,3.44,0,0,0,1.43-.27Zm-57.7,7.12c-2.54,0-3.41-.9-3.41-1.86A2.27,2.27,0,0,1,69.68,58H74.6c1.15,0,1.67.34,1.67,1.07,0,1.45-.8,2.36-3.71,2.36Zm0-17.37c1,0,1.67.45,1.67,3.24s-.66,3.08-1.66,3.08S71,50.16,71,47.31s.64-3.24,1.65-3.24Zm3.09,9.7h-5a1,1,0,0,1-1-.9,1.42,1.42,0,0,1,.62-1,7.44,7.44,0,0,0,2.31.29c3.6,0,6.07-1.64,6.07-4.69a3.58,3.58,0,0,0-1.47-2.93v-.1l2.31.81.31,0V42.43h-.26L76,43.13h-.2a10,10,0,0,0-3.24-.67c-3.6,0-6.09,1.79-6.09,4.82a4.38,4.38,0,0,0,2.32,4v.15c-.8.57-2.34,1.73-2.34,3.21a2.56,2.56,0,0,0,2.22,2.48v.15c-1.58.33-3.34.84-3.34,2.65s2.7,3.24,7.09,3.24c5.46,0,7.83-2.1,7.83-5.43,0-2.74-1.52-4-4.6-4Zm35-10.41v1.28l1.57.72v9.48l-1.48.69v1.29h8V55.54l-1.91-.69V47a7.29,7.29,0,0,1,3.09-.51,5.33,5.33,0,0,1,1.18.13V42.58a2.69,2.69,0,0,0-.69-.08c-1.53,0-2.79,1-3.61,2.86h-.14v-3h-.4l-5.64.93ZM104.28,54.1V50.3l-1.07.1a2,2,0,0,0-1.95,2.17c0,1.55.84,2.05,1.74,2.05a1.91,1.91,0,0,0,1.3-.53ZM101,44.32l-1,2.86H97.59V43.49a15.82,15.82,0,0,1,5.34-1.06c3.74,0,6,1.1,6,4.24v8.14l1.48.69v1.05a6.11,6.11,0,0,1-2.6.56c-1.45,0-2.76-.47-3-2h-.14a4.44,4.44,0,0,1-4,2,3.75,3.75,0,0,1-4-3.93c0-2.86,1.89-3.33,5-4l2.69-.47V46.94c0-1.8-.54-2.69-2.33-2.69-.23,0-.67,0-1,.06Zm-19.2,1-1.55-.72V43.36l5.83-.91h.4v9.84c0,1.59.78,1.88,2,1.88a3.81,3.81,0,0,0,1.67-.33V45.34l-1.57-.72V43.34l5.81-.93h.38v12l1.55.81V56.4L90.6,57h-.41V55.16H90a5.37,5.37,0,0,1-4.26,1.91c-2.81,0-4-2-4-4.43V45.34Zm58.74-8.69a2.49,2.49,0,1,1-2.5,2.5,2.49,2.49,0,0,1,2.5-2.5Z"/></g></g></svg>