<svg xmlns="http://www.w3.org/2000/svg" viewBox="0 0 200 100"><defs><style>.cls-1{fill:none;}.cls-2{fill:#fff;}</style></defs><title>Asset 11</title><g id="Layer_2" data-name="Layer 2"><g id="Layer_1-2" data-name="Layer 1"><rect class="cls-1" width="200" height="100"/></g><g id="Layer_2-2" data-name="Layer 2"><g id="Layer_2-3" data-name="Layer 2"><g id="Layer_3" data-name="Layer 3"><g id="Kpdjob"><path class="cls-2" d="M98.67,62.27H87.95V37.57c.31,0,.57-.06.82-.06h18.55a5.24,5.24,0,0,1,5.32,5.34,20.59,20.59,0,0,1-.07,2.76,4.67,4.67,0,0,1-4.2,4l-.86.12.81.2a5.24,5.24,0,0,1,4.32,5.26q0,3.1,0,6.2c0,.26,0,.52-.05.86H101.86c0-.26-.07-.51-.07-.77V52.32c0-1.13-.6-1.84-1.52-1.84s-1.53.69-1.53,1.83v9.16C98.73,61.71,98.69,62,98.67,62.27Zm3.1-16h0c0-.37,0-.74,0-1.11a1.43,1.43,0,0,0-1.54-1.48,1.41,1.41,0,0,0-1.49,1.47,17.81,17.81,0,0,0,0,2.33,1.39,1.39,0,0,0,1.5,1.39,1.4,1.4,0,0,0,1.51-1.38C101.81,47,101.77,46.64,101.77,46.23Z"/><path class="cls-2" d="M154.95,62.26v-1c0-2.95,0-5.9,0-8.85,0-1-.31-1.73-1.37-1.91a1.55,1.55,0,0,0-1.74,1.72c0,3.07,0,6.15,0,9.22,0,.26,0,.51-.06.83H141V37.58c.29,0,.54-.07.79-.07h18.65a5.2,5.2,0,0,1,5.24,5.16s0,.06,0,.08a21.1,21.1,0,0,1-.07,2.91,4.65,4.65,0,0,1-4.09,3.94l-.83.15,1,.25a5.16,5.16,0,0,1,4,5.1v6.31c0,.26,0,.52-.06.84Zm-.07-16.52c.08-1.31-.45-2.08-1.43-2.1A1.43,1.43,0,0,0,151.86,45a12.45,12.45,0,0,0,0,2.43,1.51,1.51,0,0,0,3-.13c0-.52,0-1.05,0-1.58Z"/><path class="cls-2" d="M134.5,49.69a5.8,5.8,0,0,1,3.93,2.72c1.62,3,1.32,9.1-3.77,9.86a16.48,16.48,0,0,1-2.38.06h-12.4a5.33,5.33,0,0,1-5.49-5.49,18.92,18.92,0,0,1,0-2.28,4.72,4.72,0,0,1,4.18-4.34c.16,0,.33-.08.72-.18l-1-.25a5.25,5.25,0,0,1-4-5.15,14.34,14.34,0,0,1,.23-3.26,5.1,5.1,0,0,1,5.12-3.87h14.09a5.27,5.27,0,0,1,5.37,5.38,19.24,19.24,0,0,1,0,2.49A4.71,4.71,0,0,1,135,49.6ZM125.34,54c0,.69,0,1.38,0,2.06a1.44,1.44,0,0,0,1.45,1.52,1.38,1.38,0,0,0,1.57-1.38,42.47,42.47,0,0,0,0-4.39,1.37,1.37,0,0,0-1.58-1.36A1.46,1.46,0,0,0,125.35,52c0,.67,0,1.34,0,2Zm0-7.82h0c0,.37,0,.74,0,1.11a1.46,1.46,0,0,0,1.42,1.5,1.38,1.38,0,0,0,1.61-1.33,12.63,12.63,0,0,0,0-2.58,1.36,1.36,0,0,0-1.55-1.27,1.45,1.45,0,0,0-1.45,1.41,11.06,11.06,0,0,0,0,1.16Z"/><path class="cls-2" d="M54.78,49.67c.09.1.11.13.13.15,3.53,1.35,4.19,2.32,4.19,6.13v5.51c0,.24,0,.48-.06.8H48.34c0-.29-.07-.54-.07-.79,0-3,0-6.07,0-9.11,0-1.16-.61-1.88-1.56-1.87s-1.48.68-1.48,1.86q0,4.56,0,9.11c0,.24,0,.48-.05.8H34.44a7.64,7.64,0,0,1-.08-.78q0-3.23,0-6.46a4.8,4.8,0,0,1,3.92-5.11,3.27,3.27,0,0,0,.4-.18c-.54-.17-1-.28-1.44-.47a4.35,4.35,0,0,1-2.84-3.9c-.12-2.41,0-4.84,0-7.26a3.32,3.32,0,0,1,.09-.52c.26,0,.5-.07.73-.07h4.4c3.65,0,5.58,1.91,5.63,5.57,0,1.39,0,2.79,0,4.18a1.4,1.4,0,0,0,1.48,1.57,1.42,1.42,0,0,0,1.53-1.54c.06-1.82,0-3.64.15-5.45a4.65,4.65,0,0,1,4.93-4.33h4.93c.24,0,.48,0,.76.06a3.06,3.06,0,0,1,.11.55c0,2.37.13,4.74,0,7.1C58.88,47.73,57.33,49.2,54.78,49.67Z"/><path class="cls-2" d="M61.13,37.45h10.5a7.43,7.43,0,0,1,.08.75c0,1.43,0,2.86,0,4.29q0,6.73.1,13.45c0,1.08.62,1.78,1.53,1.78s1.51-.69,1.51-1.79V50.43c0-.24,0-.48.06-.77H85.85c0,.3.08.53.08.77,0,2.67,0,5.33,0,8s-1.4,4-4,4q-8.42,0-16.85,0c-2.62,0-4-1.42-4-4q0-10.07,0-20.14C61.06,38,61.1,37.78,61.13,37.45Z"/></g></g></g></g></g></svg>